HIERARCHY
ROOT Hips
{
	OFFSET 0.00000 0.00000 0.00000
	CHANNELS 6 Xposition Yposition Zposition Zrotation Yrotation Xrotation 
	JOINT LHipJoint
	{
		OFFSET 0 0 0
		CHANNELS 3 Zrotation Yrotation Xrotation
		JOINT LeftUpLeg
		{
			OFFSET 1.64577 -1.42384 0.94276
			CHANNELS 3 Zrotation Yrotation Xrotation
			JOINT LeftLeg
			{
				OFFSET 2.11538 -5.81197 0.00000
				CHANNELS 3 Zrotation Yrotation Xrotation
				JOINT LeftFoot
				{
					OFFSET 2.36541 -6.49893 0.00000
					CHANNELS 3 Zrotation Yrotation Xrotation
					JOINT LeftToeBase
					{
						OFFSET 0.17759 -0.48793 1.73865
						CHANNELS 3 Zrotation Yrotation Xrotation
						End Site
						{
							OFFSET 0.00000 -0.00000 0.91205
						}
					}
				}
			}
		}
	}
	JOINT RHipJoint
	{
		OFFSET 0 0 0
		CHANNELS 3 Zrotation Yrotation Xrotation
		JOINT RightUpLeg
		{
			OFFSET -1.43750 -1.42384 0.94276
			CHANNELS 3 Zrotation Yrotation Xrotation
			JOINT RightLeg
			{
				OFFSET -2.10480 -5.78291 0.00000
				CHANNELS 3 Zrotation Yrotation Xrotation
				JOINT RightFoot
				{
					OFFSET -2.34880 -6.45329 0.00000
					CHANNELS 3 Zrotation Yrotation Xrotation
					JOINT RightToeBase
					{
						OFFSET -0.22842 -0.62757 1.80469
						CHANNELS 3 Zrotation Yrotation Xrotation
						End Site
						{
							OFFSET -0.00000 -0.00000 0.95886
						}
					}
				}
			}
		}
	}
	JOINT LowerBack
	{
		OFFSET 0 0 0
		CHANNELS 3 Zrotation Yrotation Xrotation
		JOINT Spine
		{
			OFFSET 0.06217 1.93758 -0.49272
			CHANNELS 3 Zrotation Yrotation Xrotation
			JOINT Spine1
			{
				OFFSET -0.03114 2.03621 -0.05830
				CHANNELS 3 Zrotation Yrotation Xrotation
				JOINT Neck
				{
					OFFSET 0 0 0
					CHANNELS 3 Zrotation Yrotation Xrotation
					JOINT Neck1
					{
						OFFSET 0.04421 1.41010 0.26562
						CHANNELS 3 Zrotation Yrotation Xrotation
						JOINT Head
						{
							OFFSET -0.13407 1.43847 0.06181
							CHANNELS 3 Zrotation Yrotation Xrotation
							End Site
							{
								OFFSET -0.04980 1.45844 -0.00689
							}
						}
					}
				}
				JOINT LeftShoulder
				{
					OFFSET 0 0 0
					CHANNELS 3 Zrotation Yrotation Xrotation
					JOINT LeftArm
					{
						OFFSET 2.18382 1.47753 -0.35694
						CHANNELS 3 Zrotation Yrotation Xrotation
						JOINT LeftForeArm
						{
							OFFSET 5.05460 -0.00000 0.00000
							CHANNELS 3 Zrotation Yrotation Xrotation
							JOINT LeftHand
							{
								OFFSET 3.39013 -0.00000 0.00000
								CHANNELS 3 Zrotation Yrotation Xrotation
								JOINT LeftFingerBase
								{
									OFFSET 0 0 0
									CHANNELS 3 Zrotation Yrotation Xrotation
									JOINT LeftHandIndex1
									{
										OFFSET 0.57242 -0.00000 -0.00000
										CHANNELS 3 Zrotation Yrotation Xrotation
										End Site
										{
											OFFSET 0.46150 -0.00000 -0.00000
										}
									}
								}
								JOINT LThumb
								{
									OFFSET 0 0 0
									CHANNELS 3 Zrotation Yrotation Xrotation
									End Site
									{
										OFFSET 0.46855 -0.00000 0.46855
									}
								}
							}
						}
					}
				}
				JOINT RightShoulder
				{
					OFFSET 0 0 0
					CHANNELS 3 Zrotation Yrotation Xrotation
					JOINT RightArm
					{
						OFFSET -2.06033 1.72839 -0.47437
						CHANNELS 3 Zrotation Yrotation Xrotation
						JOINT RightForeArm
						{
							OFFSET -5.07010 -0.00000 0.00000
							CHANNELS 3 Zrotation Yrotation Xrotation
							JOINT RightHand
							{
								OFFSET -3.14957 -0.00000 -0.00000
								CHANNELS 3 Zrotation Yrotation Xrotation
								JOINT RightFingerBase
								{
									OFFSET 0 0 0
									CHANNELS 3 Zrotation Yrotation Xrotation
									JOINT RightHandIndex1
									{
										OFFSET -0.71819 -0.00000 -0.00000
										CHANNELS 3 Zrotation Yrotation Xrotation
										End Site
										{
											OFFSET -0.57902 -0.00000 -0.00000
										}
									}
								}
								JOINT RThumb
								{
									OFFSET 0 0 0
									CHANNELS 3 Zrotation Yrotation Xrotation
									End Site
									{
										OFFSET -0.58786 -0.00000 0.58786
									}
								}
							}
						}
					}
				}
			}
		}
	}
}
MOTION
Frames: 16
Frame Time: .0083333
15.1676 15.3961 3.6098 0 0 0 0 0 0 -21 0 0 0 0 0 0 0 0 0 0 0 0 0 0 21 0 0 0 0 0 0 0 0 0 0 0 0 0 0 0 0 0 0 0 0 0 0 -16 0 0 21 0 0 11 0 0 0 -8 0 0 0 0 0 0 0 0 0 0 0 0 0 0 0 0 0 0 0 0 8 0 0 0 0 0 0 0 0 0 0 0 0 0 0 0 0 0
15.1676 15.3961 3.6098 179.9290 -28.4730 176.1330 0.0000 0.0000 0.0000 -23.1431 -16.8877 5.4688 1.5758 7.9201 22.4718 0.9449 19.4723 -33.8406 0.0034 -0.3765 -1.0344 0.0000 0.0000 0.0000 24.3928 17.9981 4.4085 -1.5696 -7.9053 22.4268 -1.5225 -20.1780 -37.6958 -0.7443 5.5111 -15.3722 -1.8947 1.9374 5.2038 -1.0947 2.3759 2.3367 -0.1941 1.1359 -0.5448 8.4166 3.3509 -4.4687 -4.3355 4.1442 6.3314 -2.7681 2.1076 3.1774 -0.0000 0.0000 0.0000 -86.1647 3.7910 38.3862 15.4569 -24.7787 -3.4151 -0.0000 0.0000 -2.1169 16.2992 12.9788 3.7573 -7.1250 0.0000 -0.0000 -10.0205 43.2572 0.4356 -0.0000 0.0000 0.0000 88.7685 -2.9495 48.4613 -15.8300 25.2896 -3.5730 0.0000 -0.0000 -19.8798 -6.6640 -5.4055 0.6306 7.1250 -0.0000 -0.0000 16.5139 -35.0125 4.1963
15.1692 15.3955 3.6117 179.8390 -28.4828 176.1530 0.0000 0.0000 0.0000 -23.2370 -16.8917 5.4965 1.5718 7.9106 22.4430 0.9025 19.6167 -33.7497 0.0051 -0.4591 -1.2614 0.0000 0.0000 0.0000 24.3213 18.0384 4.4154 -1.5772 -7.9235 22.4821 -1.5290 -20.1735 -37.7246 -0.7563 5.5543 -15.4967 -1.7698 1.9324 5.2510 -1.2678 2.3684 2.3298 -0.4425 1.1322 -0.5657 8.4730 3.3579 -4.3933 -4.1884 4.1435 6.2675 -2.7280 2.1131 3.1377 0.0000 0.0000 0.0000 -85.8398 3.8181 38.6256 15.4710 -24.7981 -3.4211 -0.0000 0.0000 -2.3219 14.6589 7.6376 1.9911 -7.1250 0.0000 -0.0000 -10.3697 37.6850 1.8917 0.0000 0.0000 0.0000 88.9964 -2.9579 48.4663 -15.8409 25.3044 -3.5777 0.0000 -0.0000 -19.8449 -6.5770 -5.4093 0.6227 7.1250 -0.0000 -0.0000 16.5846 -35.0116 4.2159
15.1708 15.3951 3.6130 179.8360 -28.5424 176.1590 0.0000 0.0000 0.0000 -23.2239 -16.8851 5.4391 1.5780 7.9255 22.4881 0.9656 19.3944 -33.8775 0.0007 -0.1756 -0.4825 0.0000 0.0000 0.0000 24.3263 18.0461 4.4391 -1.5730 -7.9135 22.4516 -1.5354 -20.1663 -37.7497 -0.7617 5.5735 -15.5518 -1.6521 1.9332 5.2710 -1.3647 2.3718 2.3172 -0.6087 1.1347 -0.5810 8.5985 3.3335 -4.3868 -4.1914 4.1019 6.2730 -2.7548 2.0954 3.1400 -0.0000 0.0000 0.0000 -85.6315 3.8241 38.7806 15.4640 -24.7884 -3.4181 -0.0000 0.0000 -2.3160 14.4207 7.6240 1.9539 -7.1250 0.0000 -0.0000 -10.5675 37.6557 1.9365 -0.0000 0.0000 0.0000 89.1426 -2.9891 48.4496 -15.8796 25.3571 -3.5942 0.0000 -0.0000 -19.8679 -6.5064 -5.4837 0.6244 7.1250 -0.0000 -0.0000 16.6570 -35.0796 4.2070
15.1692 15.3943 3.6131 179.8860 -28.5836 176.1500 0.0000 0.0000 0.0000 -23.1765 -16.8942 5.4097 1.5812 7.9331 22.5111 1.0092 19.2329 -33.9584 0.0000 -0.0263 -0.0722 0.0000 0.0000 0.0000 24.3461 17.9416 4.3579 -1.5709 -7.9083 22.4360 -1.4807 -20.4008 -37.7037 -0.8204 5.7795 -16.1458 -1.5699 1.9301 5.2508 -1.3784 2.3728 2.3075 -0.6682 1.1361 -0.5757 8.6911 3.3319 -4.4328 -4.2386 4.0925 6.3446 -2.7891 2.0919 3.1778 -0.0000 -0.0000 0.0000 -85.6158 3.8233 38.6590 15.4482 -24.7668 -3.4115 -0.0000 0.0000 -2.1263 14.3038 7.6410 1.9417 -7.1250 0.0000 -0.0000 -10.6687 37.6652 1.9530 -0.0000 -0.0000 0.0000 89.1719 -3.0094 48.4583 -15.9001 25.3850 -3.6030 0.0000 -0.0000 -19.8322 -6.4486 -5.5700 0.6285 7.1250 -0.0000 -0.0000 16.7216 -35.1597 4.1905
15.1688 15.3940 3.6132 179.9100 -28.5690 176.1420 0.0000 0.0000 0.0000 -23.1387 -16.8602 5.3737 1.5852 7.9425 22.5397 0.9747 19.3287 -33.8602 0.0011 -0.2183 -0.5997 0.0000 0.0000 0.0000 24.3448 17.8361 4.2861 -1.5675 -7.9003 22.4117 -1.4556 -20.5334 -37.7081 -0.8315 5.8173 -16.2552 -1.5759 1.9334 5.2516 -1.3560 2.3779 2.2947 -0.6425 1.1391 -0.5905 8.6645 3.3584 -4.4736 -4.1859 4.1224 6.4117 -2.7643 2.1080 3.2082 -0.0000 -0.0000 0.0000 -85.6801 3.8227 38.4709 15.4306 -24.7425 -3.4041 -0.0000 0.0000 -1.9958 14.3375 7.6363 1.9453 -7.1250 0.0000 -0.0000 -10.6395 37.6627 1.9482 -0.0000 -0.0000 0.0000 89.1597 -3.0040 48.4859 -15.8880 25.3685 -3.5978 0.0000 -0.0000 -19.7838 -6.4716 -5.6764 0.6428 7.1250 -0.0000 -0.0000 16.7259 -35.2635 4.1476
15.1717 15.3950 3.6137 179.9270 -28.5800 176.1190 0.0000 0.0000 0.0000 -23.1012 -16.8358 5.3508 1.5889 7.9514 22.5666 0.9694 19.3269 -33.8274 0.0014 -0.2454 -0.6742 0.0000 0.0000 0.0000 24.3846 17.8916 4.3738 -1.5642 -7.8924 22.3878 -1.4922 -20.3801 -37.7413 -0.7976 5.7005 -15.9177 -1.6678 1.9268 5.2605 -1.2894 2.3658 2.3112 -0.5221 1.1322 -0.5851 8.5766 3.3763 -4.5266 -4.1352 4.1451 6.4359 -2.7287 2.1187 3.2234 0.0000 0.0000 0.0000 -85.8055 3.7820 38.2987 15.4225 -24.7314 -3.4008 -0.0000 0.0000 -1.9274 14.3915 7.6509 1.9566 -7.1250 0.0000 -0.0000 -10.5967 37.6810 1.9353 0.0000 0.0000 0.0000 89.0604 -2.9606 48.5521 -15.8773 25.3540 -3.5932 0.0000 -0.0000 -19.8171 -6.4908 -5.6764 0.6447 7.1250 -0.0000 -0.0000 16.7104 -35.2645 4.1431
15.1729 15.3935 3.6145 179.9370 -28.6149 176.0920 0.0000 0.0000 0.0000 -23.1341 -16.9600 5.4272 1.5908 7.9560 22.5805 0.9719 19.3574 -33.8743 0.0011 -0.2121 -0.5829 0.0000 0.0000 0.0000 24.4252 17.9261 4.4288 -1.5621 -7.8873 22.3724 -1.4716 -20.4786 -37.7346 -0.8154 5.7622 -16.0961 -1.7186 1.8640 5.2816 -1.2448 2.2801 2.3157 -0.4438 1.0892 -0.5957 8.5201 3.4344 -4.4955 -4.1311 4.2295 6.4138 -2.7126 2.1594 3.2138 -0.0000 0.0000 0.0000 -85.8947 3.8090 38.1121 15.4419 -24.7581 -3.4089 -0.0000 0.0000 -2.0008 14.3970 7.6807 1.9650 -7.1250 0.0000 -0.0000 -10.5974 37.7116 1.9274 -0.0000 0.0000 0.0000 88.9691 -2.9373 48.6858 -15.8388 25.3016 -3.5768 0.0000 -0.0000 -19.7634 -6.4107 -5.5599 0.6237 7.1250 -0.0000 -0.0000 16.7500 -35.1480 4.2031
15.1714 15.3921 3.6154 179.9470 -28.6109 176.0790 0.0000 0.0000 0.0000 -23.1801 -17.0788 5.4997 1.5911 7.9567 22.5826 0.9128 19.6168 -33.8100 0.0056 -0.4840 -1.3298 0.0000 0.0000 0.0000 24.4346 17.8971 4.3939 -1.5611 -7.8848 22.3647 -1.4389 -20.6534 -37.7432 -0.8273 5.8030 -16.2139 -1.6398 1.8530 5.3136 -1.2828 2.2679 2.2920 -0.5275 1.0840 -0.6332 8.5892 3.4639 -4.4833 -4.1348 4.2650 6.4149 -2.7253 2.1786 3.2171 -0.0000 0.0000 0.0000 -85.8168 3.8782 38.2085 15.4840 -24.8160 -3.4265 -0.0000 0.0000 -2.1683 14.3250 7.7311 1.9675 -7.1250 0.0000 -0.0000 -10.6668 37.7578 1.9281 -0.0000 0.0000 0.0000 89.0781 -2.9409 48.5827 -15.7813 25.2232 -3.5523 0.0000 -0.0000 -19.5915 -6.3660 -5.4781 0.6102 7.1250 -0.0000 -0.0000 16.7685 -35.0669 4.2427
15.1706 15.3936 3.6165 179.9950 -28.5956 176.0460 0.0000 0.0000 0.0000 -23.1402 -17.0540 5.4945 1.5920 7.9588 22.5891 0.9581 19.4932 -33.9398 0.0028 -0.3431 -0.9426 0.0000 0.0000 0.0000 24.4728 17.9271 4.4471 -1.5591 -7.8800 22.3503 -1.4580 -20.5149 -37.7016 -0.7991 5.7055 -15.9323 -1.5812 1.8742 5.3539 -1.2761 2.2986 2.2687 -0.5570 1.1004 -0.6776 8.6594 3.4630 -4.5157 -4.1532 4.2569 6.4736 -2.7452 2.1761 3.2463 -0.0000 0.0000 0.0000 -85.7954 3.9294 38.3750 15.5082 -24.8493 -3.4367 -0.0000 0.0000 -2.2276 14.3456 7.7520 1.9757 -7.1250 0.0000 -0.0000 -10.6532 37.7803 1.9196 -0.0000 0.0000 0.0000 89.1208 -2.9708 48.5024 -15.7779 25.2186 -3.5508 0.0000 -0.0000 -19.5352 -6.3843 -5.4784 0.6120 7.1250 -0.0000 -0.0000 16.7539 -35.0680 4.2382
15.1707 15.3945 3.6179 180.0550 -28.5887 176.0230 0.0000 0.0000 0.0000 -23.0955 -17.1052 5.4990 1.5953 7.9666 22.6127 1.0728 19.1678 -34.2567 0.0006 0.1643 0.4513 0.0000 0.0000 0.0000 24.5254 17.9692 4.5040 -1.5542 -7.8683 22.3146 -1.5154 -20.2512 -37.7317 -0.7563 5.5544 -15.4968 -1.6598 1.8132 5.3761 -1.1597 2.2175 2.2284 -0.3906 1.0611 -0.7387 8.6109 3.5321 -4.4562 -4.2216 4.3630 6.5163 -2.7552 2.2261 3.2583 -0.0000 0.0000 0.0000 -86.0087 4.0491 38.1772 15.5234 -24.8702 -3.4431 -0.0000 0.0000 -2.1256 14.5298 7.7034 1.9897 -7.1250 0.0000 -0.0000 -10.4898 37.7432 1.8990 -0.0000 0.0000 0.0000 88.8813 -3.0644 48.8675 -15.8543 25.3227 -3.5834 0.0000 -0.0000 -19.6795 -6.3933 -5.5832 0.6246 7.1250 -0.0000 -0.0000 16.7689 -35.1695 4.1991
15.1706 15.3946 3.6186 180.0880 -28.5939 176.0200 0.0000 0.0000 0.0000 -23.1061 -17.2583 5.5457 1.5981 7.9734 22.6334 1.1178 19.1137 -34.4577 0.0039 0.4054 1.1138 0.0000 0.0000 0.0000 24.5423 17.9496 4.5001 -1.5496 -7.8571 22.2808 -1.5425 -20.1401 -37.7604 -0.7382 5.4889 -15.3085 -1.4668 1.8426 5.3260 -1.2343 2.2658 2.2544 -0.5756 1.0856 -0.6740 8.6124 3.4965 -4.5072 -4.1621 4.3068 6.4806 -2.7371 2.1995 3.2494 0.0000 -0.0000 0.0000 -85.8811 4.0243 38.3951 15.5604 -24.9210 -3.4587 -0.0000 0.0000 -2.1309 14.5201 7.7361 1.9967 -7.1250 0.0000 -0.0000 -10.5035 37.7758 1.8931 0.0000 -0.0000 0.0000 88.9815 -3.0418 48.7884 -15.8807 25.3586 -3.5947 0.0000 -0.0000 -19.7180 -6.4140 -5.5969 0.6282 7.1250 -0.0000 -0.0000 16.7552 -35.1838 4.1893
15.1697 15.3940 3.6189 180.1170 -28.5913 175.9930 0.0000 0.0000 0.0000 -23.0853 -17.2587 5.5689 1.5955 7.9671 22.6141 1.2047 18.8536 -34.6828 0.0151 0.7938 2.1817 0.0000 0.0000 0.0000 24.5538 17.8514 4.4330 -1.5507 -7.8596 22.2886 -1.4366 -20.4879 -37.5664 -0.8127 5.7527 -16.0685 -1.4690 1.8326 5.3477 -1.2025 2.2529 2.2414 -0.5419 1.0796 -0.7008 8.5938 3.5083 -4.4610 -4.1604 4.3275 6.4604 -2.7323 2.2095 3.2343 -0.0000 -0.0000 0.0000 -85.9223 4.0897 38.4556 15.6009 -24.9765 -3.4757 -0.0000 0.0000 -2.1439 14.2915 7.8613 1.9955 -7.1250 0.0000 -0.0000 -10.7181 37.8872 1.9031 -0.0000 -0.0000 0.0000 88.9348 -3.0733 48.8244 -15.8707 25.3450 -3.5904 0.0000 -0.0000 -19.7088 -6.4136 -5.4840 0.6155 7.1250 -0.0000 -0.0000 16.7316 -35.0750 4.2292
15.1689 15.3926 3.6195 180.1100 -28.5735 175.9780 0.0000 0.0000 0.0000 -23.0861 -17.1934 5.5921 1.5884 7.9501 22.5627 1.1974 18.8512 -34.6393 0.0158 0.8118 2.2312 0.0000 0.0000 0.0000 24.5384 17.7818 4.3610 -1.5560 -7.8726 22.3277 -1.3658 -20.7464 -37.4650 -0.9005 6.0477 -16.9228 -1.4436 1.8533 5.3678 -1.2284 2.2800 2.2500 -0.5847 1.0929 -0.7010 8.6244 3.5080 -4.4766 -4.1274 4.3209 6.4604 -2.7268 2.2080 3.2368 -0.0000 -0.0000 0.0000 -85.8498 4.0656 38.6817 15.6356 -25.0241 -3.4904 -0.0000 0.0000 -2.2775 14.2131 8.0775 2.0383 -7.1250 0.0000 -0.0000 -10.8232 38.1006 1.8648 -0.0000 -0.0000 0.0000 88.9763 -3.0705 48.7783 -15.8794 25.3569 -3.5942 0.0000 -0.0000 -19.6788 -6.3974 -5.4487 0.6100 7.1250 -0.0000 -0.0000 16.7371 -35.0402 4.2455
15.1688 15.3931 3.6199 179.9800 -28.5748 176.0400 0.0000 0.0000 0.0000 -23.2282 -17.2253 5.6541 1.5788 7.9273 22.4935 1.0946 19.1827 -34.3972 0.0034 0.3788 1.0409 0.0000 0.0000 0.0000 24.4191 17.8537 4.3886 -1.5637 -7.8912 22.3842 -1.4317 -20.5103 -37.5634 -0.8846 5.9954 -16.7712 -1.4921 1.8829 5.3742 -1.3057 2.3139 2.2484 -0.6392 1.1089 -0.7050 8.6651 3.4894 -4.4816 -4.1094 4.2910 6.4559 -2.7296 2.1946 3.2349 -0.0000 0.0000 0.0000 -85.7332 4.0614 38.9384 15.6899 -25.0984 -3.5134 -0.0000 0.0000 -2.4457 14.3743 8.2986 2.1184 -7.1250 0.0000 -0.0000 -10.7275 38.3353 1.7852 -0.0000 0.0000 0.0000 89.0541 -3.0692 48.7070 -15.8745 25.3502 -3.5921 0.0000 -0.0000 -19.6590 -6.4337 -5.4639 0.6152 7.1250 -0.0000 -0.0000 16.7112 -35.0568 4.2314
15.1692 15.3952 3.6197 179.8810 -28.5848 176.1110 0.0000 0.0000 0.0000 -23.3268 -17.2528 5.6891 1.5668 7.8985 22.4061 1.0043 19.4708 -34.1834 0.0000 -0.0451 -0.1240 0.0000 0.0000 0.0000 24.3365 17.9701 4.4006 -1.5745 -7.9170 22.4623 -1.4954 -20.2962 -37.6748 -0.8423 5.8542 -16.3619 -1.5791 1.8770 5.3575 -1.3180 2.3023 2.2196 -0.6026 1.1033 -0.7283 8.5911 3.4997 -4.4178 -4.0695 4.3122 6.4649 -2.7014 2.2049 3.2231 0.0000 0.0000 0.0000 -85.8048 4.1361 38.8932 15.7400 -25.1669 -3.5347 -0.0000 0.0000 -2.4602 14.8980 8.2315 2.1813 -7.1250 0.0000 -0.0000 -10.2724 38.3041 1.7154 0.0000 0.0000 0.0000 89.0490 -3.0949 48.6594 -15.8267 25.2851 -3.5716 0.0000 -0.0000 -19.5827 -6.4510 -5.3996 0.6096 7.1250 -0.0000 -0.0000 16.6837 -34.9957 4.2497
